<svg version="1.1" id="Layer_1" xmlns="http://www.w3.org/2000/svg" xmlns:xlink="http://www.w3.org/1999/xlink" x="0px" y="0px"
	 width="100%" viewBox="0 0 372 174" enable-background="new 0 0 372 174" xml:space="preserve">
<path fill="#000000" opacity="1.000000" stroke="none" 
	d="
M244.000000,175.000000 
	C236.312424,175.000000 228.624832,175.000000 220.421906,174.533127 
	C219.597305,160.963120 219.655289,147.837952 218.871094,134.763290 
	C218.149124,122.726181 209.813309,114.340523 198.050369,113.138733 
	C193.342026,112.657700 188.543457,113.059593 182.997559,113.059593 
	C182.997559,109.423470 182.998718,105.317360 182.997345,101.211258 
	C182.993851,90.825127 182.051865,90.115829 171.555695,89.902283 
	C167.160172,89.812843 165.864594,91.142784 165.908630,95.547371 
	C166.113220,116.005257 165.982040,136.466507 165.552948,156.961548 
	C161.059479,157.775665 156.899048,159.590424 152.994995,155.718567 
	C151.770432,153.420380 150.732132,151.418503 149.785034,148.929596 
	C149.918381,143.611130 150.047150,138.778290 149.968201,133.948837 
	C149.925247,131.320953 150.671326,129.573273 153.595795,130.038300 
	C159.085312,130.911179 160.705322,128.365479 160.035690,123.335228 
	C159.795853,121.533745 159.895920,119.668030 160.012360,117.842575 
	C160.186813,115.107712 159.096680,113.581779 156.282715,114.040863 
	C150.683395,114.954376 149.254196,112.197609 149.897919,107.267548 
	C150.090546,105.792336 149.923599,104.271667 149.943130,102.772118 
	C150.089127,91.565453 147.981171,89.575737 137.036819,89.942039 
	C134.039825,90.042351 132.869293,90.990440 132.959473,94.028427 
	C133.117630,99.356148 132.925110,104.693481 133.025208,110.024055 
	C133.074066,112.626389 132.385300,114.409355 129.428177,113.963593 
	C123.938423,113.136086 122.201416,115.583717 123.116920,120.710770 
	C123.318596,121.840202 123.249588,123.052086 123.109856,124.202271 
	C122.593971,128.448547 124.177170,130.609360 128.671066,129.996674 
	C132.395691,129.488846 133.150879,131.465332 133.049301,134.715927 
	C132.872421,140.376129 132.806229,146.054626 133.052902,151.709778 
	C133.438538,160.550140 136.746536,167.782532 145.065842,172.064957 
	C146.237137,172.667908 147.031281,174.003525 148.000000,175.000000 
	C139.312439,175.000000 130.624878,175.000000 121.397263,174.535553 
	C120.877419,156.785187 120.933372,139.499176 120.899429,122.213356 
	C120.886635,115.697411 119.103996,114.030579 112.595886,113.994987 
	C112.097260,113.992264 111.598610,113.994194 111.099968,113.994095 
	C103.063812,113.992462 103.061745,113.992470 103.051361,121.824028 
	C103.035927,133.458633 103.091133,145.093857 102.983192,156.727585 
	C102.924835,163.017136 102.667770,169.291443 106.000000,175.000000 
	C99.645599,175.000000 93.291206,175.000000 86.428253,174.532623 
	C85.946854,163.400040 85.937202,152.734558 86.015053,142.069733 
	C86.061172,135.751465 88.279259,131.145966 92.637161,130.463196 
	C96.842484,129.804352 97.242035,127.657166 96.996780,124.350830 
	C96.849243,122.361877 96.837166,120.342682 96.996689,118.355743 
	C97.252022,115.175407 96.062347,114.001770 92.747200,113.927917 
	C81.375626,113.674614 72.565788,120.140411 70.306900,132.424347 
	C68.849792,140.348175 69.280617,148.632889 69.033241,156.761002 
	C68.843109,163.007889 68.233200,169.374695 72.000000,175.000000 
	C68.969406,175.000000 65.938812,175.000000 62.414192,174.532608 
	C61.947269,164.263870 61.472672,154.429199 62.121262,144.669159 
	C63.051022,130.677979 52.421761,115.058167 36.343456,113.279373 
	C23.447945,111.852707 12.841406,115.291794 4.998940,126.024178 
	C3.903623,127.523109 2.344450,128.683105 0.999999,130.000000 
	C1.000000,87.041740 1.000000,44.083481 1.000000,1.000000 
	C108.020859,1.000000 215.041779,1.000000 322.865814,1.323195 
	C323.178314,2.074724 322.726501,2.819858 322.191437,2.885362 
	C306.180542,4.845557 290.958008,9.833558 276.323761,16.201496 
	C266.182617,20.614298 257.220398,26.947392 254.814590,39.344238 
	C252.877960,49.323521 259.797821,58.343838 270.262390,57.873089 
	C273.476166,57.554592 276.248199,57.198769 279.435059,56.894539 
	C281.240417,56.907494 282.630859,56.868862 284.406342,56.884178 
	C286.537598,57.216675 288.283813,57.495224 290.429962,57.851234 
	C292.186615,57.969326 293.543335,58.009949 295.112976,58.351475 
	C297.889984,59.377888 300.454071,60.103397 303.334839,60.980732 
	C305.774628,62.020008 307.897766,62.907463 310.296112,63.941158 
	C311.760040,64.858414 312.948730,65.629417 314.339844,66.688995 
	C315.659851,68.623825 316.777496,70.270096 317.810181,71.791245 
	C326.280609,64.770233 324.272461,50.134533 314.886139,41.596264 
	C313.195374,40.512440 311.647644,39.728573 309.907043,38.632111 
	C307.146881,37.600700 304.579590,36.881886 301.713074,36.012466 
	C300.608887,35.526531 299.803925,35.191196 299.166809,34.525181 
	C314.148865,29.046507 329.265717,25.239386 345.161926,24.218391 
	C350.385803,29.372992 348.601837,35.642933 347.420837,40.775230 
	C343.846771,56.306774 339.169128,71.584373 334.683746,87.040970 
	C334.351349,87.416100 334.256744,87.711166 334.087799,88.201553 
	C334.013458,88.396873 333.998322,88.814583 333.578217,88.893425 
	C331.475006,89.019958 329.791931,89.067657 327.664612,89.056435 
	C321.062469,89.928123 316.194458,86.910568 311.334106,83.833313 
	C302.164185,78.027550 292.681396,73.357346 281.326813,73.947922 
	C270.964447,74.486877 262.399780,81.825562 261.215698,91.244919 
	C266.874573,92.037041 272.938934,91.800529 278.069122,93.874634 
	C284.706940,96.558273 290.599243,101.085915 297.153748,104.938805 
	C301.375458,107.644653 305.256012,110.231308 309.481079,112.901596 
	C311.577271,114.170921 313.354584,115.320557 315.076447,116.548050 
	C328.547119,126.151207 349.943634,123.350197 355.389221,104.938614 
	C360.993073,85.991920 365.819611,66.815628 371.069550,47.762753 
	C371.265442,47.051834 372.336700,46.582123 373.000000,46.000004 
	C373.000000,88.911919 373.000000,131.823837 373.000000,175.000000 
	C344.979645,175.000000 316.958496,175.000000 288.411316,174.533951 
	C287.923370,164.908447 287.880798,155.747757 288.021332,146.589874 
	C288.172272,136.756317 284.768372,128.447983 277.914215,121.435219 
	C269.603607,112.932312 259.543915,112.291939 248.463196,113.794449 
	C233.353699,115.843246 223.514816,132.783432 224.334976,144.930511 
	C225.128708,156.686371 230.343719,166.557190 241.508987,172.291718 
	C242.532898,172.817596 243.178650,174.079742 244.000000,175.000000 
M115.639290,108.572411 
	C120.850906,106.308853 122.464134,102.009872 121.874130,96.798256 
	C121.421120,92.796860 118.954445,90.107765 114.975189,89.275223 
	C110.666321,88.373703 106.126373,88.750359 104.034241,92.973083 
	C102.665756,95.735214 102.119736,99.870888 103.168297,102.650970 
	C105.002243,107.513374 109.374817,109.784393 115.639290,108.572411 
z"/>
<path fill="#8FD5E9" opacity="1.000000" stroke="none" 
	d="
M269.820648,57.835762 
	C259.797821,58.343838 252.877960,49.323521 254.814590,39.344238 
	C257.220398,26.947392 266.182617,20.614298 276.323761,16.201496 
	C290.958008,9.833558 306.180542,4.845557 322.191437,2.885362 
	C322.726501,2.819858 323.178314,2.074724 323.334473,1.323195 
	C335.354218,1.000000 347.708466,1.000000 360.203827,1.264813 
	C364.080750,4.697484 367.803497,7.881102 371.578735,11.001227 
	C371.860016,11.233712 372.517426,11.011065 373.000000,11.000000 
	C373.000000,19.354231 373.000000,27.708464 372.704681,36.336479 
	C371.821930,35.248226 371.066620,33.932388 370.676910,32.515961 
	C369.185516,27.095592 365.609680,24.076782 360.155853,23.285185 
	C356.713837,22.785597 353.238037,22.306549 349.772949,22.272745 
	C348.167419,22.257082 346.551361,23.325577 344.940063,23.902563 
	C329.265717,25.239386 314.148865,29.046507 298.765137,34.571556 
	C297.124146,35.042122 296.052612,35.135632 294.623749,35.205044 
	C292.503204,35.761707 290.740021,36.342464 288.616913,36.947685 
	C286.500153,37.692142 284.743317,38.412136 282.638489,39.162865 
	C279.994904,40.329010 277.699310,41.464417 275.067810,42.673546 
	C272.695251,44.063839 270.455719,45.151188 268.660095,46.740192 
	C263.379578,51.413185 263.713013,53.948715 269.820648,57.835762 
z"/>
<path fill="#373838" opacity="1.000000" stroke="none" 
	d="
M165.971039,156.926559 
	C165.982040,136.466507 166.113220,116.005257 165.908630,95.547371 
	C165.864594,91.142784 167.160172,89.812843 171.555695,89.902283 
	C182.051865,90.115829 182.993851,90.825127 182.997345,101.211258 
	C182.998718,105.317360 182.997559,109.423470 182.997559,113.059593 
	C188.543457,113.059593 193.342026,112.657700 198.050369,113.138733 
	C209.813309,114.340523 218.149124,122.726181 218.871094,134.763290 
	C219.655289,147.837952 219.597305,160.963120 219.953278,174.533127 
	C215.310745,175.000000 210.621490,175.000000 205.484863,174.606903 
	C204.359207,170.860153 203.287888,167.530823 203.078506,164.148132 
	C202.515533,155.052765 202.795456,145.876450 201.691254,136.860809 
	C201.358795,134.146408 197.990982,130.644058 195.265411,129.727448 
	C192.822174,128.905762 188.566498,130.324020 186.549179,132.256195 
	C184.463196,134.254135 183.255295,138.032410 183.151810,141.082397 
	C182.768570,152.376984 182.999710,163.692398 183.000000,175.000000 
	C177.977905,175.000000 172.955811,175.000000 167.454788,174.600296 
	C166.938782,173.136887 166.901718,172.073181 166.922501,170.547485 
	C166.643921,165.699188 166.307480,161.312881 165.971039,156.926559 
z"/>
<path fill="#373737" opacity="1.000000" stroke="none" 
	d="
M244.468658,175.000000 
	C243.178650,174.079742 242.532898,172.817596 241.508987,172.291718 
	C230.343719,166.557190 225.128708,156.686371 224.334976,144.930511 
	C223.514816,132.783432 233.353699,115.843246 248.463196,113.794449 
	C259.543915,112.291939 269.603607,112.932312 277.914215,121.435219 
	C284.768372,128.447983 288.172272,136.756317 288.021332,146.589874 
	C287.880798,155.747757 287.923370,164.908447 287.942688,174.533951 
	C273.645782,175.000000 259.291534,175.000000 244.468658,175.000000 
M263.812683,131.465134 
	C254.552185,124.580681 240.071930,133.539017 241.768097,146.192368 
	C242.995270,155.346970 253.342590,161.857666 261.638977,157.710861 
	C271.647217,152.708420 272.964386,140.406265 263.812683,131.465134 
z"/>
<path fill="#373737" opacity="1.000000" stroke="none" 
	d="
M0.999999,130.468658 
	C2.344450,128.683105 3.903623,127.523109 4.998940,126.024178 
	C12.841406,115.291794 23.447945,111.852707 36.343456,113.279373 
	C52.421761,115.058167 63.051022,130.677979 62.121262,144.669159 
	C61.472672,154.429199 61.947269,164.263870 61.960079,174.532608 
	C47.979103,175.000000 33.958210,175.000000 19.453030,174.649994 
	C13.664352,169.234955 8.372263,164.156876 3.036945,159.124649 
	C2.490499,158.609253 1.685190,158.368301 1.000000,158.000000 
	C1.000000,148.979111 1.000000,139.958206 0.999999,130.468658 
M23.172285,156.542450 
	C31.013935,160.759109 37.107861,159.657166 42.471394,153.052628 
	C45.913265,148.814362 46.097866,140.831940 42.872086,135.724548 
	C39.615047,130.567657 33.840370,128.379639 27.897034,129.777908 
	C22.275286,131.100525 19.096579,135.002472 17.557909,140.051636 
	C15.653111,146.302216 17.415405,151.821579 23.172285,156.542450 
z"/>
<path fill="#4E7EBF" opacity="1.000000" stroke="none" 
	d="
M345.161926,24.218391 
	C346.551361,23.325577 348.167419,22.257082 349.772949,22.272745 
	C353.238037,22.306549 356.713837,22.785597 360.155853,23.285185 
	C365.609680,24.076782 369.185516,27.095592 370.676910,32.515961 
	C371.066620,33.932388 371.821930,35.248226 372.704681,36.805130 
	C373.000000,39.700012 373.000000,42.400028 373.000000,45.550026 
	C372.336700,46.582123 371.265442,47.051834 371.069550,47.762753 
	C365.819611,66.815628 360.993073,85.991920 355.389221,104.938614 
	C349.943634,123.350197 328.547119,126.151207 315.076447,116.548050 
	C313.354584,115.320557 311.577271,114.170921 309.798706,112.694244 
	C323.524872,110.819008 333.081635,101.513824 333.998322,88.814583 
	C333.998322,88.814583 334.013458,88.396873 334.248291,88.053185 
	C334.659332,87.477562 334.805450,87.228043 334.921539,86.960922 
	C339.169128,71.584373 343.846771,56.306774 347.420837,40.775230 
	C348.601837,35.642933 350.385803,29.372992 345.161926,24.218391 
z"/>
<path fill="#373838" opacity="1.000000" stroke="none" 
	d="
M148.444168,175.000000 
	C147.031281,174.003525 146.237137,172.667908 145.065842,172.064957 
	C136.746536,167.782532 133.438538,160.550140 133.052902,151.709778 
	C132.806229,146.054626 132.872421,140.376129 133.049301,134.715927 
	C133.150879,131.465332 132.395691,129.488846 128.671066,129.996674 
	C124.177170,130.609360 122.593971,128.448547 123.109856,124.202271 
	C123.249588,123.052086 123.318596,121.840202 123.116920,120.710770 
	C122.201416,115.583717 123.938423,113.136086 129.428177,113.963593 
	C132.385300,114.409355 133.074066,112.626389 133.025208,110.024055 
	C132.925110,104.693481 133.117630,99.356148 132.959473,94.028427 
	C132.869293,90.990440 134.039825,90.042351 137.036819,89.942039 
	C147.981171,89.575737 150.089127,91.565453 149.943130,102.772118 
	C149.923599,104.271667 150.090546,105.792336 149.897919,107.267548 
	C149.254196,112.197609 150.683395,114.954376 156.282715,114.040863 
	C159.096680,113.581779 160.186813,115.107712 160.012360,117.842575 
	C159.895920,119.668030 159.795853,121.533745 160.035690,123.335228 
	C160.705322,128.365479 159.085312,130.911179 153.595795,130.038300 
	C150.671326,129.573273 149.925247,131.320953 149.968201,133.948837 
	C150.047150,138.778290 149.918381,143.611130 149.625229,149.276337 
	C148.064667,159.343277 148.085770,168.222214 156.000000,175.000000 
	C153.629440,175.000000 151.258896,175.000000 148.444168,175.000000 
z"/>
<path fill="#373737" opacity="1.000000" stroke="none" 
	d="
M72.464645,175.000000 
	C68.233200,169.374695 68.843109,163.007889 69.033241,156.761002 
	C69.280617,148.632889 68.849792,140.348175 70.306900,132.424347 
	C72.565788,120.140411 81.375626,113.674614 92.747200,113.927917 
	C96.062347,114.001770 97.252022,115.175407 96.996689,118.355743 
	C96.837166,120.342682 96.849243,122.361877 96.996780,124.350830 
	C97.242035,127.657166 96.842484,129.804352 92.637161,130.463196 
	C88.279259,131.145966 86.061172,135.751465 86.015053,142.069733 
	C85.937202,152.734558 85.946854,163.400040 85.959854,174.532623 
	C81.643097,175.000000 77.286201,175.000000 72.464645,175.000000 
z"/>
<path fill="#363636" opacity="1.000000" stroke="none" 
	d="
M106.466118,175.000000 
	C102.667770,169.291443 102.924835,163.017136 102.983192,156.727585 
	C103.091133,145.093857 103.035927,133.458633 103.051361,121.824028 
	C103.061745,113.992470 103.063812,113.992462 111.099968,113.994095 
	C111.598610,113.994194 112.097260,113.992264 112.595886,113.994987 
	C119.103996,114.030579 120.886635,115.697411 120.899429,122.213356 
	C120.933372,139.499176 120.877419,156.785187 120.928612,174.535553 
	C116.310745,175.000000 111.621490,175.000000 106.466118,175.000000 
z"/>
<path fill="#000000" opacity="1.000000" stroke="none" 
	d="
M183.468567,175.000000 
	C182.999710,163.692398 182.768570,152.376984 183.151810,141.082397 
	C183.255295,138.032410 184.463196,134.254135 186.549179,132.256195 
	C188.566498,130.324020 192.822174,128.905762 195.265411,129.727448 
	C197.990982,130.644058 201.358795,134.146408 201.691254,136.860809 
	C202.795456,145.876450 202.515533,155.052765 203.078506,164.148132 
	C203.287888,167.530823 204.359207,170.860153 205.018738,174.606903 
	C197.979050,175.000000 190.958099,175.000000 183.468567,175.000000 
z"/>
<path fill="#31A6CC" opacity="1.000000" stroke="none" 
	d="
M156.458069,175.000000 
	C148.085770,168.222214 148.064667,159.343277 149.534058,149.763367 
	C150.732132,151.418503 151.770432,153.420380 152.803848,156.006775 
	C152.421753,164.803528 157.370346,169.876129 166.864639,171.009476 
	C166.901718,172.073181 166.938782,173.136887 166.987930,174.600296 
	C163.638718,175.000000 160.277420,175.000000 156.458069,175.000000 
z"/>
<path fill="#000000" opacity="1.000000" stroke="none" 
	d="
M1.000000,158.470459 
	C1.685190,158.368301 2.490499,158.609253 3.036945,159.124649 
	C8.372263,164.156876 13.664352,169.234955 18.984371,174.649994 
	C13.076678,175.000000 7.153358,175.000000 1.000000,175.000000 
	C1.000000,169.649139 1.000000,164.295029 1.000000,158.470459 
z"/>
<path fill="#000000" opacity="1.000000" stroke="none" 
	d="
M373.000000,10.513435 
	C372.517426,11.011065 371.860016,11.233712 371.578735,11.001227 
	C367.803497,7.881102 364.080750,4.697484 360.672485,1.264813 
	C364.911987,1.000000 368.823944,1.000000 373.000000,1.000000 
	C373.000000,4.006122 373.000000,7.016497 373.000000,10.513435 
z"/>
<path fill="#8FD5E9" opacity="1.000000" stroke="none" 
	d="
M296.812531,104.819611 
	C290.599243,101.085915 284.706940,96.558273 278.069122,93.874634 
	C272.938934,91.800529 266.874573,92.037041 261.215698,91.244919 
	C262.399780,81.825562 270.964447,74.486877 281.326813,73.947922 
	C292.681396,73.357346 302.164185,78.027550 311.334106,83.833313 
	C316.194458,86.910568 321.062469,89.928123 327.688660,89.430038 
	C327.295776,91.583115 326.759125,93.595146 325.519196,94.975433 
	C318.982727,102.251793 310.195801,103.490799 301.067688,103.770859 
	C299.639923,103.814659 298.230469,104.455070 296.812531,104.819611 
z"/>
<path fill="#363636" opacity="1.000000" stroke="none" 
	d="
M115.259430,108.697647 
	C109.374817,109.784393 105.002243,107.513374 103.168297,102.650970 
	C102.119736,99.870888 102.665756,95.735214 104.034241,92.973083 
	C106.126373,88.750359 110.666321,88.373703 114.975189,89.275223 
	C118.954445,90.107765 121.421120,92.796860 121.874130,96.798256 
	C122.464134,102.009872 120.850906,106.308853 115.259430,108.697647 
z"/>
<path fill="#31A6CC" opacity="1.000000" stroke="none" 
	d="
M297.153748,104.938805 
	C298.230469,104.455070 299.639923,103.814659 301.067688,103.770859 
	C310.195801,103.490799 318.982727,102.251793 325.519196,94.975433 
	C326.759125,93.595146 327.295776,91.583115 328.132874,89.488968 
	C329.791931,89.067657 331.475006,89.019958 333.578217,88.893425 
	C333.081635,101.513824 323.524872,110.819008 309.454163,112.610626 
	C305.256012,110.231308 301.375458,107.644653 297.153748,104.938805 
z"/>
<path fill="#3D6BAE" opacity="1.000000" stroke="none" 
	d="
M302.012299,36.163071 
	C304.579590,36.881886 307.146881,37.600700 309.647400,38.944252 
	C309.727417,47.644295 309.874146,55.719604 310.020905,63.794914 
	C307.897766,62.907463 305.774628,62.020008 303.329987,60.525547 
	C302.676422,52.000050 302.344360,44.081562 302.012299,36.163071 
z"/>
<path fill="#4878BA" opacity="1.000000" stroke="none" 
	d="
M315.029144,41.896217 
	C324.272461,50.134533 326.280609,64.770233 317.810181,71.791245 
	C316.777496,70.270096 315.659851,68.623825 314.699005,66.432739 
	C315.054871,64.200485 315.436462,62.511318 315.420441,60.825935 
	C315.360474,54.515362 315.170441,48.206020 315.029144,41.896217 
z"/>
<path fill="#3661A4" opacity="1.000000" stroke="none" 
	d="
M301.713074,36.012470 
	C302.344360,44.081562 302.676422,52.000050 303.013306,60.373722 
	C300.454071,60.103397 297.889984,59.377888 295.376526,58.029282 
	C295.278442,50.013836 295.129761,42.621487 294.981079,35.229137 
	C296.052612,35.135632 297.124146,35.042122 298.597321,34.902237 
	C299.803925,35.191196 300.608887,35.526531 301.713074,36.012470 
z"/>
<path fill="#253B74" opacity="1.000000" stroke="none" 
	d="
M270.262390,57.873089 
	C263.713013,53.948715 263.379578,51.413185 268.660095,46.740192 
	C270.455719,45.151188 272.695251,44.063839 275.432861,42.913231 
	C277.095917,47.667122 278.058044,52.255035 279.020203,56.842949 
	C276.248199,57.198769 273.476166,57.554592 270.262390,57.873089 
z"/>
<path fill="#8AD1E5" opacity="1.000000" stroke="none" 
	d="
M166.922501,170.547485 
	C157.370346,169.876129 152.421753,164.803528 152.990112,156.303101 
	C156.899048,159.590424 161.059479,157.775665 165.552948,156.961548 
	C166.307480,161.312881 166.643921,165.699188 166.922501,170.547485 
z"/>
<path fill="#325899" opacity="1.000000" stroke="none" 
	d="
M294.623749,35.205044 
	C295.129761,42.621487 295.278442,50.013836 295.163635,57.728378 
	C293.543335,58.009949 292.186615,57.969326 290.423767,57.413834 
	C289.670715,50.240387 289.323761,43.581802 288.976807,36.923218 
	C290.740021,36.342464 292.503204,35.761707 294.623749,35.205044 
z"/>
<path fill="#4473B6" opacity="1.000000" stroke="none" 
	d="
M314.886139,41.596264 
	C315.170441,48.206020 315.360474,54.515362 315.420441,60.825935 
	C315.436462,62.511318 315.054871,64.200485 314.496643,66.144173 
	C312.948730,65.629417 311.760040,64.858414 310.296112,63.941158 
	C309.874146,55.719604 309.727417,47.644295 309.840271,39.256844 
	C311.647644,39.728573 313.195374,40.512440 314.886139,41.596264 
z"/>
<path fill="#2C4E8D" opacity="1.000000" stroke="none" 
	d="
M288.616882,36.947678 
	C289.323761,43.581802 289.670715,50.240387 290.023865,57.336372 
	C288.283813,57.495224 286.537598,57.216675 284.400940,56.432434 
	C283.669189,50.328545 283.327820,44.730339 282.986450,39.132133 
	C284.743317,38.412136 286.500153,37.692142 288.616882,36.947678 
z"/>
<path fill="#284581" opacity="1.000000" stroke="none" 
	d="
M282.638458,39.162865 
	C283.327820,44.730339 283.669189,50.328545 284.015930,56.378487 
	C282.630859,56.868862 281.240417,56.907494 279.435059,56.894539 
	C278.058044,52.255035 277.095917,47.667122 275.768738,42.839516 
	C277.699310,41.464417 279.994904,40.329010 282.638458,39.162865 
z"/>
<path fill="#31A6CC" opacity="1.000000" stroke="none" 
	d="
M334.683746,87.040970 
	C334.805450,87.228043 334.659332,87.477562 334.322632,87.857864 
	C334.256744,87.711166 334.351349,87.416100 334.683746,87.040970 
z"/>
<path fill="#000000" opacity="1.000000" stroke="none" 
	d="
M264.105164,131.704987 
	C272.964386,140.406265 271.647217,152.708420 261.638977,157.710861 
	C253.342590,161.857666 242.995270,155.346970 241.768097,146.192368 
	C240.071930,133.539017 254.552185,124.580681 264.105164,131.704987 
z"/>
<path fill="#000000" opacity="1.000000" stroke="none" 
	d="
M22.883760,156.298874 
	C17.415405,151.821579 15.653111,146.302216 17.557909,140.051636 
	C19.096579,135.002472 22.275286,131.100525 27.897034,129.777908 
	C33.840370,128.379639 39.615047,130.567657 42.872086,135.724548 
	C46.097866,140.831940 45.913265,148.814362 42.471394,153.052628 
	C37.107861,159.657166 31.013935,160.759109 22.883760,156.298874 
z"/>
</svg>